<svg xmlns="http://www.w3.org/2000/svg" viewBox="0 0 159.59 232.89"><defs><style>.cls-1{fill:#ee4840;}.cls-2{fill:#f7af87;}.cls-3{fill:#ed473f;}.cls-4{fill:#e8e1db;}.cls-5{fill:#c7322d;}.cls-6{fill:#d7c9bf;}.cls-7{fill:#f59e74;}.cls-8{fill:#d6c8bd;}.cls-9{fill:#282b30;}.cls-10{fill:#272a2f;}.cls-11{fill:#f4ad84;}.cls-12{fill:#f5ac85;}.cls-13{fill:#d6c8be;}.cls-14{fill:#c42f29;}.cls-15{fill:#d6cabc;}.cls-16{fill:#d4c9bc;}.cls-17{fill:#f49d74;}.cls-18{fill:#c52925;}.cls-19{fill:#c7302a;}.cls-20{fill:#d9cac0;}.cls-21{fill:#2d2c2f;}.cls-22{fill:#252e2e;}.cls-23{fill:#d5cbbe;}.cls-24{fill:#281d10;}.cls-25{fill:#27180e;}.cls-26{fill:#f5de56;}.cls-27{fill:#202a32;}.cls-28{fill:#212a2e;}.cls-29{fill:#f7c85a;}.cls-30{fill:#fbcc59;}.cls-31{fill:#f8ca57;}.cls-32{fill:#bd211c;}.cls-33{fill:#2e2417;}.cls-34{fill:#fafaf6;}.cls-35{fill:#36271e;}.cls-36{fill:#2d2018;}.cls-37{fill:#322521;}.cls-38{fill:#352320;}.cls-39{fill:#27292e;}</style></defs><title>SANTA</title><g id="Layer_2" data-name="Layer 2"><g id="Layer_1-2" data-name="Layer 1"><path class="cls-1" d="M52.8,165.64l.08-25.58c-1.54-1.63-2.84-.54-4.39.18a90.42,90.42,0,0,1-16.07,6.2c-8.24,2.06-8.52,2-11-6.09a1.25,1.25,0,0,1,.66-1.15c15.33-2.31,27.57-10.12,38-21.25,1.24-1.33,2.45-2.7,3.67-4.05a13,13,0,0,1,11.37,3.32,13.14,13.14,0,0,0,8.88-.35c3.77-1.85,7.41-4.08,11.88-3.46,10.55,14.13,24.44,22.89,41.87,25.92,2.7,2.74,1.33,5.56.2,8.39-1.67,1.86-3.75,1-5.6.61a75.12,75.12,0,0,1-21-7.41c-1.57-.84-3.27-2.73-5.25-.54,1.89,8.39.55,16.9.93,25.34a1.2,1.2,0,0,1-.31.91c-5,4-5,4,.24,7.63.34,1.87.72,3.73,1,5.61.22,1.36.24,2.65-1.78,2.38-1.18.87-2.05,2.15-3.73,2.28-10.52.85-20.9,3.34-31.62,1.32-5.6-1.06-11.65.59-17-2.58-3.17-2.68-.05-6-.93-8.94a1.29,1.29,0,0,1,.51-.8c5.23-2.91,5.23-2.91.28-6.25A1.7,1.7,0,0,1,52.8,165.64Z"/><path class="cls-2" d="M98,106.16l-2.27,1.91c-1.33,1.71-2.81,3.3-5,3.87a39.56,39.56,0,0,1-22.33-.23,7,7,0,0,1-4.5-3.62c-6.06-4.08-11.3-8.92-14-15.9-.82-2.11-3-1.7-4.32-2.86.3-3.58-1.15-7-.72-10.63,1.53-5,1.48-10.31,3.68-15.11C54.07,57.65,61.26,56,69,55.69,76,57.44,83,59.15,90.2,60.24a10,10,0,0,1,5.46,2.1c1,1.38.33,2.07-1,2.47.23.55-1.8-1.06-.49.53.17,1.43,1.41,1.72,2.41,2s.52-.86.86-1.29c3.82-4.26,7.54-3.65,9.53,1.84,1.92,5.3,1.29,10.87.61,16.3C106.51,92.42,104.24,100.18,98,106.16Z"/><path class="cls-1" d="M41.69,49.09C45.62,21.23,67.34,2.68,89.91.29,99.49,2,103.36,6.53,104,16.3c.47,7.44-1.57,14.38-3.64,21.34A9.33,9.33,0,0,1,96.21,43a7.9,7.9,0,0,1-5.37.29c-15.05-3.1-29,.67-42.55,6.88-1.52.7-3,1.51-4.71,1.44S41,50.89,41.69,49.09Z"/><path class="cls-3" d="M105.81,184.11c-.45,9.12-1.65,18.11-5,26.7-4.71,2.67-9.74,1.18-14.66,1.17-2.31-1.18-3-3.35-3.34-5.68s-.91-4.5-1.25-6.78c-.17-1.1-.46-2.51-1.84-2.58-1.54-.08-1.58,1.43-1.79,2.51-.41,2.09-.9,4.16-1.23,6.28-.37,2.41-.81,4.92-3.27,6.34-3.75.79-7.49,0-11.24,0A4.7,4.7,0,0,1,58,209.24a143.92,143.92,0,0,1-3.85-24.15c1.4-1.29,3.11-1,4.74-.86,14.56,1.72,29.09,2,43.6-.54C103.61,183.49,104.79,183.23,105.81,184.11Z"/><path class="cls-4" d="M41.69,49.09c.13,2.17,1,1.8,2.5,1a78.33,78.33,0,0,1,27.07-9.26c8.4-1.39,16.5-.34,24.61,1.56,2.42-.8,4.41-.46,5.6,2.08a10.62,10.62,0,0,1-.42,3.92c-1,5.35-3.21,7.07-8.58,6.49A89.17,89.17,0,0,0,63,56.45a48.69,48.69,0,0,0-16.77,7.08c-1.79,1.21-3.57,3.33-6.22,1.64A40.21,40.21,0,0,1,41.69,49.09Z"/><path class="cls-5" d="M100.86,44.3l-5-2c3.8-8.25,6.34-16.79,6-26-.3-8.08-4.55-13.26-12-16.07C103.75-1.09,115.48,2.28,123,15a2.45,2.45,0,0,1-3.12,2.16c-7.79-2.1-12.18,1.83-10.51,10,1.52,7.38,3.78,14.61,5.71,21.91.69,2.21-.66,3-2.29,2.33C108.45,49.74,103.63,48.69,100.86,44.3Z"/><path class="cls-6" d="M100.86,44.3a49.69,49.69,0,0,1,11.85,5.45c1.18.69,2,1.1,2.4-.67.87,1.73,1.83,3.43,2.6,5.21,2.54,5.84,1.06,11-2.66,15.85-2.48-1.43-3.15-4.83-6.18-5.67-.82-.51-1.72-.86-2.57-1.3a75.39,75.39,0,0,0-27.61-5.6c-3.31-.09-6.57-.89-9.89-.58-7.07.52-13.55,2.62-19.11,7.18-2,1.78-2.92,5.45-6.82,3.94C41,68,40.49,66.59,40,65.17c11-8.31,23.77-11.24,37.16-12.36a71.61,71.61,0,0,1,15.27.27c4.07.53,7-.42,6.52-5.47C98.79,46.09,99.84,45.18,100.86,44.3Z"/><path class="cls-7" d="M93.95,66.11c-1.19-1.42-3-.7-5-1.55,2.58-.94,5.07.19,7-1.21,2.82-4.05,6.45-1.37,9.78-1.18,4.69,1.46,5,6.1,6.84,9.56.15,1.26,1.22.77,1.92,1,5.58,5,6.52,7.76,4.13,12.64-.57,1.16-1.43,2.88-2.37,3-5.52.89-6.8,5.64-9.3,9.39-2.3,3.44-5,6.56-8.93,8.39-1.19-.26-1.18-.55-.41-1.58,7.55-10.12,9-21.8,8.07-33.89-.44-5.78-3.34-6.79-8-3.43C96,68.2,94.8,67.71,93.95,66.11Z"/><path class="cls-8" d="M63.93,108.09c4.59.5,8.57,3.09,13.42,3.2,6.45.15,12.41-1.28,18.38-3.23q.06,2.66.12,5.33c-3.46,3-7.75,3.83-12.07,4.56a12.71,12.71,0,0,1-8.85-.05c-4-.65-7.88-1.53-11.21-4C64,112,62.62,110,63.93,108.09Z"/><path class="cls-9" d="M99.92,226.09c2.56,2.35,5.77,1.94,8.85,2.09,1.11.05,2.61-.11,2.94,1.24s-1,2.21-2,2.42a48.67,48.67,0,0,1-19.63.09c-1.49-.28-1.11-1.82-1.38-2.87.42-4.34-1.66-8.59-.47-13,3.17-2.14,6.32-1.49,9.47.09.51,1.95-.13,3.82-.28,5.73S97.79,225.48,99.92,226.09Z"/><path class="cls-10" d="M70.76,219.91c-1.28,2.37-1,4.86-.25,7.24,1.18,3.75-.32,5.08-3.94,5.35a71.5,71.5,0,0,1-14.9-.2c-1.68-.23-3.74-.75-3.58-2.69s2.33-1.41,3.71-1.44c3.34-.07,6.64-.15,9.14-2.85,2.35-2.52.45-5.46.81-8.18,2.86-3.45,6.2-2.63,9.62-1.09C72.13,217.48,72.16,218.81,70.76,219.91Z"/><path class="cls-11" d="M143.76,139.27c1.13-1,2.24-2,3.4-2.89.21-.17.62-.09,1-.13,1.85,1.77-1.57,2.7-.6,4.43,3.54,1.37,6.61-2.93,10.44-1.14-.71,2.31-3.3,1.46-4.53,3.26a8.53,8.53,0,0,1,2,.22c1.42.51,3.85-1.92,4.15.57s-2.87,1-4.17,2c1.27.67,3.05-.34,4.21,1.44-1.69,1.87-4.05.65-6.08,1.47.69.82,2.81,0,2.65,1.53s-1.82,1.13-2.86,1.06c-3.8-.25-7.59-.64-11.38-1C138.39,145.46,139,141.69,143.76,139.27Z"/><path class="cls-12" d="M17.79,150.13c-4.77-.49-9.44,1.75-14.31.69-.27-2.59,2.29-1.29,3.1-2.36-2.15-.67-4.42.36-6.39-1,.19-2.47,2.46-1,3.41-1.9-1.16-.77-4-.1-3.56-1.8.79-3.14,3.8.52,5.51-1.25-.52-1.65-3-.83-3.84-3,3.67-1.88,6.67,2.46,10.07,1.17.49-.66.12-1.18-.24-1.74-.51-.78-1.61-1.68-.73-2.56,1.16-1.15,2.06.13,2.9.86s1.48,1.33,2.22,2C19.62,142.26,20.24,145.84,17.79,150.13Z"/><path class="cls-13" d="M119.9,17.2,123,15c3.72-.39,7.54-.69,8.78,4,.75,2.81.5,5.71-2.62,7.22s-6.37,1.46-9.13-1.1S118.05,19.89,119.9,17.2Z"/><path class="cls-14" d="M22.17,140c.29.15.82.28.84.46.71,7.63,5.48,5.17,9.7,3.88a89.39,89.39,0,0,0,16.84-6.83c1.06-.58,2.48-1.53,3.67-.54s0,2.09-.35,3.12a79.87,79.87,0,0,1-29,10.28C20.06,149.1,19.28,144.29,22.17,140Z"/><path class="cls-15" d="M70.69,216.19c-2.87,1.35-6,.11-8.94.94-4.08-1.28-4.32-4.4-3.77-7.89,2.68,2,5.71.37,8.55.8,2.4.37,4.84.53,7.26.78C75.64,215.1,75.08,216.07,70.69,216.19Z"/><path class="cls-16" d="M97.7,216.18a12.53,12.53,0,0,1-8.55,0c-1.82,1.07-3.51,1-4.62-.92S84,211.85,86,210.88a31.29,31.29,0,0,1,14.87-.07C102.4,214.13,101.54,216,97.7,216.18Z"/><path class="cls-17" d="M46.74,78.8c.3,2.09.56,4.18.92,6.26s.17,3.6-2.08,4.27c-3.81-.48-5.13-3.31-5.67-6.48-.69-4.09.69-7.44,4.5-9.52C47.36,74.23,45.62,77.12,46.74,78.8Z"/><path class="cls-18" d="M106,140.36c.75-.92-.48-4.27,2.57-2.36,8.65,5.41,18.49,7.43,28.09,10.18a1.25,1.25,0,0,1,.22,2c-9.8-.56-18.68-4.07-27.31-8.43C108.47,141.16,107.56,139.94,106,140.36Z"/><path class="cls-19" d="M105.81,184.11c-17.17,3.42-34.42,1.94-51.67,1l-.33-1.84c8.05.51,16.11.93,24.15,1.56,9.55.74,18.79-1.6,28.17-2.58Z"/><path class="cls-20" d="M22.17,140c1.06,3.37-.54,7.19,1.7,10.37-2.07,1.15-4.12,2-6.07-.21-.71-3.6-.36-7.37-1.87-10.83,2-.63,4.09-1.56,6.17-.11A1.41,1.41,0,0,0,22.17,140Z"/><path class="cls-21" d="M52.8,165.64c3.05.94,7.63-.5,7,5.67-.38,3.53-1.3,4.35-4.45,3.29a11.44,11.44,0,0,0-2.44-.28C51.58,171.43,51.1,168.54,52.8,165.64Z"/><path class="cls-22" d="M106.89,174.24c-.66.07-1.31.19-2,.21-1.81,0-4.58,2.31-4.94-1.42-.28-2.93-1.54-7.07,4-6.87a15.24,15.24,0,0,0,2.93-.46C108.77,168.57,107.52,171.4,106.89,174.24Z"/><path class="cls-23" d="M136.91,150.16l-.22-2,1-8.86,6,0c-3.17,3.2-1.37,7.24-1.84,10.89C140.25,152.41,138.58,152.65,136.91,150.16Z"/><path class="cls-24" d="M46.74,78.8l-2.33-5.47L42.87,68.1c2.35-1.18,4-3.62,6.82-3.94Z"/><path class="cls-25" d="M114.48,72.71l-1,4.52c-3.47-.53.78-3.4-1.59-4.14-1.08-3.2-3.39-6.16-2-9.87,2.89,1.42,5.86,2.79,5.12,6.91Z"/><path class="cls-26" d="M86.49,177.1c-4.63,1.95-9.23,2.13-13.79-.2-2-3-2.81-6,.11-8.93,2.66-3.14,11-3,13.89.22C89.46,171.23,87.64,174.16,86.49,177.1Z"/><path class="cls-27" d="M86.49,177.1c-1.45-3-.39-5.95.21-8.91a18.87,18.87,0,0,0,3-.34c4.67-1.29,5.73.86,5.43,5.1-.17,2.42-1,3.1-3.24,3.2A38.79,38.79,0,0,0,86.49,177.1Z"/><path class="cls-28" d="M72.81,168l-.11,8.93c-1.11-.24-2.27-.81-3.34-.66-5.72.77-4.77-3.38-5.07-6.64-.19-2,1.25-2,2.6-1.95C68.87,167.72,70.84,167.86,72.81,168Z"/><path class="cls-29" d="M79.48,128.33c1.43.3,2.45,1,2.32,2.62s-1.24,2.18-2.73,2.07A2,2,0,0,1,77,130.77C77,129.15,78,128.48,79.48,128.33Z"/><path class="cls-30" d="M81.83,157.58c-.3,1.44-1,2.48-2.66,2.33a2.15,2.15,0,0,1-2.12-2.31c0-1.63,1.06-2.37,2.6-2.3C81,155.36,81.68,156.27,81.83,157.58Z"/><path class="cls-31" d="M81.81,144.29a2.33,2.33,0,0,1-2.68,2.15A2.14,2.14,0,0,1,77,144.16c.06-1.65,1.2-2.2,2.67-2.14A2.06,2.06,0,0,1,81.81,144.29Z"/><path class="cls-32" d="M74.93,117.9l8.85.05c-3.26,2.36-6.84.84-10.3.84C73.59,117.87,74.49,118.26,74.93,117.9Z"/><path class="cls-33" d="M106.9,63.3l-11,.05A116.64,116.64,0,0,1,68.8,57c13.81-3.43,26.82-.74,39.39,5.19C108.15,63,107.78,63.45,106.9,63.3Z"/><path class="cls-34" d="M68.45,90.18c7.72,3.65,15,4,22.38,1.4-1.08,5.08-4.72,8.05-10,8.36S70.36,96.39,68.45,90.18Z"/><path class="cls-35" d="M68,73.83c0,2.4-.24,4-2.1,4.18-2.11.17-2.76-1.55-2.81-3.23s.71-3.08,2.45-3.11A2.27,2.27,0,0,1,68,73.83Z"/><path class="cls-36" d="M94.45,78.1c-1.89-.12-2.39-1.5-2.53-3s.38-3.09,2.14-3.28c2.11-.23,2.8,1.35,2.76,3.13C96.8,76.47,96.28,77.83,94.45,78.1Z"/><path class="cls-37" d="M93.95,66.11l3.69,1.16c1,1.29,3.43,1.26,3.51,4.21-3.73-3.06-8.07-3.3-13.15-4.26C90.52,65.58,92.33,66.41,93.95,66.11Z"/><path class="cls-38" d="M58.72,69.86A12.17,12.17,0,0,1,70.88,67C66.91,68.34,62.51,67.91,58.72,69.86Z"/><path class="cls-2" d="M106.9,63.3l1.3-1.12,1.74,1c-.31,3.49,2.08,6.43,2,9.87C108.86,70.53,109.41,66.13,106.9,63.3Z"/><path class="cls-39" d="M79.61,168.28c4-1.07,4.32.92,4.56,4.14.32,4.3-2.15,3.66-4.81,3.85-3.23.23-4.22-.75-4.2-4.1C75.19,168.57,76.28,167.27,79.61,168.28Z"/></g></g></svg>